# xmcd
#
# Track frame offsets:
#	180
#	17308
#	31041
#	43906
#
# Disc length: 816 seconds
#
# Revision: 0
# Processed by: cddbd v1.5.2PL0 Copyright (c) Steve Scherf et al.
# Submitted via: audiograbber 1.83.01
#
DISCID=21032e04
DTITLE=Dellla Curry - 5th Annual County Showdown
DYEAR=1994
DGENRE=Country
TTITLE0=Money Can't Buy
TTITLE1=Send The Angels
TTITLE2=Good Intentions
TTITLE3=Half Empty Glass
EXTD=
EXTT0=
EXTT1=
EXTT2=
EXTT3=
PLAYORDER=
